<mxfile host="app.diagrams.net" modified="2023-11-30T17:08:11.051Z" agent="Mozilla/5.0 (Windows NT 10.0; Win64; x64) AppleWebKit/537.36 (KHTML, like Gecko) Chrome/118.0.0.0 Safari/537.36 OPR/104.0.0.0" etag="T41PDWTd4Mb_pUSBvSi2" version="22.1.5" type="github">
  <diagram name="PÃ¡gina-1" id="ded77e9X9RSURZOmmrYg">
    <mxGraphModel dx="1009" dy="542" grid="1" gridSize="10" guides="1" tooltips="1" connect="1" arrows="1" fold="1" page="1" pageScale="1" pageWidth="827" pageHeight="1169" math="0" shadow="0">
      <root>
        <mxCell id="0" />
        <mxCell id="1" parent="0" />
        <mxCell id="EZ8uRCTiNzeVlMYTdXC0-14" style="edgeStyle=orthogonalEdgeStyle;rounded=0;orthogonalLoop=1;jettySize=auto;html=1;" edge="1" parent="1" source="EZ8uRCTiNzeVlMYTdXC0-1" target="EZ8uRCTiNzeVlMYTdXC0-5">
          <mxGeometry relative="1" as="geometry" />
        </mxCell>
        <mxCell id="EZ8uRCTiNzeVlMYTdXC0-1" value="bibliotecario&lt;br&gt;" style="swimlane;fontStyle=1;align=center;verticalAlign=top;childLayout=stackLayout;horizontal=1;startSize=26;horizontalStack=0;resizeParent=1;resizeParentMax=0;resizeLast=0;collapsible=1;marginBottom=0;whiteSpace=wrap;html=1;" vertex="1" parent="1">
          <mxGeometry x="140" y="190" width="160" height="86" as="geometry" />
        </mxCell>
        <mxCell id="EZ8uRCTiNzeVlMYTdXC0-2" value="+ field: type" style="text;strokeColor=none;fillColor=none;align=left;verticalAlign=top;spacingLeft=4;spacingRight=4;overflow=hidden;rotatable=0;points=[[0,0.5],[1,0.5]];portConstraint=eastwest;whiteSpace=wrap;html=1;" vertex="1" parent="EZ8uRCTiNzeVlMYTdXC0-1">
          <mxGeometry y="26" width="160" height="26" as="geometry" />
        </mxCell>
        <mxCell id="EZ8uRCTiNzeVlMYTdXC0-3" value="" style="line;strokeWidth=1;fillColor=none;align=left;verticalAlign=middle;spacingTop=-1;spacingLeft=3;spacingRight=3;rotatable=0;labelPosition=right;points=[];portConstraint=eastwest;strokeColor=inherit;" vertex="1" parent="EZ8uRCTiNzeVlMYTdXC0-1">
          <mxGeometry y="52" width="160" height="8" as="geometry" />
        </mxCell>
        <mxCell id="EZ8uRCTiNzeVlMYTdXC0-4" value="+ method(type): type" style="text;strokeColor=none;fillColor=none;align=left;verticalAlign=top;spacingLeft=4;spacingRight=4;overflow=hidden;rotatable=0;points=[[0,0.5],[1,0.5]];portConstraint=eastwest;whiteSpace=wrap;html=1;" vertex="1" parent="EZ8uRCTiNzeVlMYTdXC0-1">
          <mxGeometry y="60" width="160" height="26" as="geometry" />
        </mxCell>
        <mxCell id="EZ8uRCTiNzeVlMYTdXC0-5" value="persona" style="swimlane;fontStyle=1;align=center;verticalAlign=top;childLayout=stackLayout;horizontal=1;startSize=26;horizontalStack=0;resizeParent=1;resizeParentMax=0;resizeLast=0;collapsible=1;marginBottom=0;whiteSpace=wrap;html=1;" vertex="1" parent="1">
          <mxGeometry x="430" y="60" width="160" height="112" as="geometry" />
        </mxCell>
        <mxCell id="EZ8uRCTiNzeVlMYTdXC0-6" value="-nombre; String;" style="text;strokeColor=none;fillColor=none;align=left;verticalAlign=top;spacingLeft=4;spacingRight=4;overflow=hidden;rotatable=0;points=[[0,0.5],[1,0.5]];portConstraint=eastwest;whiteSpace=wrap;html=1;" vertex="1" parent="EZ8uRCTiNzeVlMYTdXC0-5">
          <mxGeometry y="26" width="160" height="26" as="geometry" />
        </mxCell>
        <mxCell id="EZ8uRCTiNzeVlMYTdXC0-39" value="-nombre; String;" style="text;strokeColor=none;fillColor=none;align=left;verticalAlign=top;spacingLeft=4;spacingRight=4;overflow=hidden;rotatable=0;points=[[0,0.5],[1,0.5]];portConstraint=eastwest;whiteSpace=wrap;html=1;" vertex="1" parent="EZ8uRCTiNzeVlMYTdXC0-5">
          <mxGeometry y="52" width="160" height="26" as="geometry" />
        </mxCell>
        <mxCell id="EZ8uRCTiNzeVlMYTdXC0-7" value="" style="line;strokeWidth=1;fillColor=none;align=left;verticalAlign=middle;spacingTop=-1;spacingLeft=3;spacingRight=3;rotatable=0;labelPosition=right;points=[];portConstraint=eastwest;strokeColor=inherit;" vertex="1" parent="EZ8uRCTiNzeVlMYTdXC0-5">
          <mxGeometry y="78" width="160" height="8" as="geometry" />
        </mxCell>
        <mxCell id="EZ8uRCTiNzeVlMYTdXC0-8" value="+ method(type): type" style="text;strokeColor=none;fillColor=none;align=left;verticalAlign=top;spacingLeft=4;spacingRight=4;overflow=hidden;rotatable=0;points=[[0,0.5],[1,0.5]];portConstraint=eastwest;whiteSpace=wrap;html=1;" vertex="1" parent="EZ8uRCTiNzeVlMYTdXC0-5">
          <mxGeometry y="86" width="160" height="26" as="geometry" />
        </mxCell>
        <mxCell id="EZ8uRCTiNzeVlMYTdXC0-9" value="estudiante&lt;br&gt;" style="swimlane;fontStyle=1;align=center;verticalAlign=top;childLayout=stackLayout;horizontal=1;startSize=26;horizontalStack=0;resizeParent=1;resizeParentMax=0;resizeLast=0;collapsible=1;marginBottom=0;whiteSpace=wrap;html=1;" vertex="1" parent="1">
          <mxGeometry x="620" y="220" width="160" height="86" as="geometry" />
        </mxCell>
        <mxCell id="EZ8uRCTiNzeVlMYTdXC0-10" value="+ field: type" style="text;strokeColor=none;fillColor=none;align=left;verticalAlign=top;spacingLeft=4;spacingRight=4;overflow=hidden;rotatable=0;points=[[0,0.5],[1,0.5]];portConstraint=eastwest;whiteSpace=wrap;html=1;" vertex="1" parent="EZ8uRCTiNzeVlMYTdXC0-9">
          <mxGeometry y="26" width="160" height="26" as="geometry" />
        </mxCell>
        <mxCell id="EZ8uRCTiNzeVlMYTdXC0-11" value="" style="line;strokeWidth=1;fillColor=none;align=left;verticalAlign=middle;spacingTop=-1;spacingLeft=3;spacingRight=3;rotatable=0;labelPosition=right;points=[];portConstraint=eastwest;strokeColor=inherit;" vertex="1" parent="EZ8uRCTiNzeVlMYTdXC0-9">
          <mxGeometry y="52" width="160" height="8" as="geometry" />
        </mxCell>
        <mxCell id="EZ8uRCTiNzeVlMYTdXC0-12" value="+ method(type): type" style="text;strokeColor=none;fillColor=none;align=left;verticalAlign=top;spacingLeft=4;spacingRight=4;overflow=hidden;rotatable=0;points=[[0,0.5],[1,0.5]];portConstraint=eastwest;whiteSpace=wrap;html=1;" vertex="1" parent="EZ8uRCTiNzeVlMYTdXC0-9">
          <mxGeometry y="60" width="160" height="26" as="geometry" />
        </mxCell>
        <mxCell id="EZ8uRCTiNzeVlMYTdXC0-15" style="edgeStyle=orthogonalEdgeStyle;rounded=0;orthogonalLoop=1;jettySize=auto;html=1;" edge="1" parent="1" source="EZ8uRCTiNzeVlMYTdXC0-10" target="EZ8uRCTiNzeVlMYTdXC0-5">
          <mxGeometry relative="1" as="geometry" />
        </mxCell>
        <mxCell id="EZ8uRCTiNzeVlMYTdXC0-16" value="Libro" style="swimlane;fontStyle=1;align=center;verticalAlign=top;childLayout=stackLayout;horizontal=1;startSize=26;horizontalStack=0;resizeParent=1;resizeParentMax=0;resizeLast=0;collapsible=1;marginBottom=0;whiteSpace=wrap;html=1;" vertex="1" parent="1">
          <mxGeometry x="310" y="380" width="160" height="86" as="geometry" />
        </mxCell>
        <mxCell id="EZ8uRCTiNzeVlMYTdXC0-17" value="-disponibilidad int;" style="text;strokeColor=none;fillColor=none;align=left;verticalAlign=top;spacingLeft=4;spacingRight=4;overflow=hidden;rotatable=0;points=[[0,0.5],[1,0.5]];portConstraint=eastwest;whiteSpace=wrap;html=1;" vertex="1" parent="EZ8uRCTiNzeVlMYTdXC0-16">
          <mxGeometry y="26" width="160" height="26" as="geometry" />
        </mxCell>
        <mxCell id="EZ8uRCTiNzeVlMYTdXC0-18" value="" style="line;strokeWidth=1;fillColor=none;align=left;verticalAlign=middle;spacingTop=-1;spacingLeft=3;spacingRight=3;rotatable=0;labelPosition=right;points=[];portConstraint=eastwest;strokeColor=inherit;" vertex="1" parent="EZ8uRCTiNzeVlMYTdXC0-16">
          <mxGeometry y="52" width="160" height="8" as="geometry" />
        </mxCell>
        <mxCell id="EZ8uRCTiNzeVlMYTdXC0-19" value="+ method(type): type" style="text;strokeColor=none;fillColor=none;align=left;verticalAlign=top;spacingLeft=4;spacingRight=4;overflow=hidden;rotatable=0;points=[[0,0.5],[1,0.5]];portConstraint=eastwest;whiteSpace=wrap;html=1;" vertex="1" parent="EZ8uRCTiNzeVlMYTdXC0-16">
          <mxGeometry y="60" width="160" height="26" as="geometry" />
        </mxCell>
        <mxCell id="EZ8uRCTiNzeVlMYTdXC0-20" value="Prestamo" style="swimlane;fontStyle=1;align=center;verticalAlign=top;childLayout=stackLayout;horizontal=1;startSize=26;horizontalStack=0;resizeParent=1;resizeParentMax=0;resizeLast=0;collapsible=1;marginBottom=0;whiteSpace=wrap;html=1;" vertex="1" parent="1">
          <mxGeometry x="620" y="390" width="190" height="196" as="geometry" />
        </mxCell>
        <mxCell id="EZ8uRCTiNzeVlMYTdXC0-40" value="-fecha: Date;" style="text;strokeColor=none;fillColor=none;align=left;verticalAlign=top;spacingLeft=4;spacingRight=4;overflow=hidden;rotatable=0;points=[[0,0.5],[1,0.5]];portConstraint=eastwest;whiteSpace=wrap;html=1;" vertex="1" parent="EZ8uRCTiNzeVlMYTdXC0-20">
          <mxGeometry y="26" width="190" height="22" as="geometry" />
        </mxCell>
        <mxCell id="EZ8uRCTiNzeVlMYTdXC0-21" value="-fechaDevolucion: Date;" style="text;strokeColor=none;fillColor=none;align=left;verticalAlign=top;spacingLeft=4;spacingRight=4;overflow=hidden;rotatable=0;points=[[0,0.5],[1,0.5]];portConstraint=eastwest;whiteSpace=wrap;html=1;" vertex="1" parent="EZ8uRCTiNzeVlMYTdXC0-20">
          <mxGeometry y="48" width="190" height="22" as="geometry" />
        </mxCell>
        <mxCell id="EZ8uRCTiNzeVlMYTdXC0-50" value="+ esactivo(boolean): boolean" style="text;strokeColor=none;fillColor=none;align=left;verticalAlign=top;spacingLeft=4;spacingRight=4;overflow=hidden;rotatable=0;points=[[0,0.5],[1,0.5]];portConstraint=eastwest;whiteSpace=wrap;html=1;" vertex="1" parent="EZ8uRCTiNzeVlMYTdXC0-20">
          <mxGeometry y="70" width="190" height="22" as="geometry" />
        </mxCell>
        <mxCell id="EZ8uRCTiNzeVlMYTdXC0-22" value="" style="line;strokeWidth=1;fillColor=none;align=left;verticalAlign=middle;spacingTop=-1;spacingLeft=3;spacingRight=3;rotatable=0;labelPosition=right;points=[];portConstraint=eastwest;strokeColor=inherit;" vertex="1" parent="EZ8uRCTiNzeVlMYTdXC0-20">
          <mxGeometry y="92" width="190" height="8" as="geometry" />
        </mxCell>
        <mxCell id="EZ8uRCTiNzeVlMYTdXC0-47" value="+multar();" style="text;strokeColor=none;fillColor=none;align=left;verticalAlign=top;spacingLeft=4;spacingRight=4;overflow=hidden;rotatable=0;points=[[0,0.5],[1,0.5]];portConstraint=eastwest;whiteSpace=wrap;html=1;" vertex="1" parent="EZ8uRCTiNzeVlMYTdXC0-20">
          <mxGeometry y="100" width="190" height="28" as="geometry" />
        </mxCell>
        <mxCell id="EZ8uRCTiNzeVlMYTdXC0-48" value="+prestar(libro, estudiante, bibliotecario); Prestamo;" style="text;strokeColor=none;fillColor=none;align=left;verticalAlign=top;spacingLeft=4;spacingRight=4;overflow=hidden;rotatable=0;points=[[0,0.5],[1,0.5]];portConstraint=eastwest;whiteSpace=wrap;html=1;" vertex="1" parent="EZ8uRCTiNzeVlMYTdXC0-20">
          <mxGeometry y="128" width="190" height="34" as="geometry" />
        </mxCell>
        <mxCell id="EZ8uRCTiNzeVlMYTdXC0-49" value="existolibro(libro): boolean" style="text;strokeColor=none;fillColor=none;align=left;verticalAlign=top;spacingLeft=4;spacingRight=4;overflow=hidden;rotatable=0;points=[[0,0.5],[1,0.5]];portConstraint=eastwest;whiteSpace=wrap;html=1;" vertex="1" parent="EZ8uRCTiNzeVlMYTdXC0-20">
          <mxGeometry y="162" width="190" height="34" as="geometry" />
        </mxCell>
        <mxCell id="EZ8uRCTiNzeVlMYTdXC0-24" value="Categoria" style="swimlane;fontStyle=1;align=center;verticalAlign=top;childLayout=stackLayout;horizontal=1;startSize=26;horizontalStack=0;resizeParent=1;resizeParentMax=0;resizeLast=0;collapsible=1;marginBottom=0;whiteSpace=wrap;html=1;" vertex="1" parent="1">
          <mxGeometry x="10" y="380" width="160" height="86" as="geometry" />
        </mxCell>
        <mxCell id="EZ8uRCTiNzeVlMYTdXC0-26" value="" style="line;strokeWidth=1;fillColor=none;align=left;verticalAlign=middle;spacingTop=-1;spacingLeft=3;spacingRight=3;rotatable=0;labelPosition=right;points=[];portConstraint=eastwest;strokeColor=inherit;" vertex="1" parent="EZ8uRCTiNzeVlMYTdXC0-24">
          <mxGeometry y="26" width="160" height="8" as="geometry" />
        </mxCell>
        <mxCell id="EZ8uRCTiNzeVlMYTdXC0-41" value="-nombreCategoria: String;" style="text;strokeColor=none;fillColor=none;align=left;verticalAlign=top;spacingLeft=4;spacingRight=4;overflow=hidden;rotatable=0;points=[[0,0.5],[1,0.5]];portConstraint=eastwest;whiteSpace=wrap;html=1;" vertex="1" parent="EZ8uRCTiNzeVlMYTdXC0-24">
          <mxGeometry y="34" width="160" height="26" as="geometry" />
        </mxCell>
        <mxCell id="EZ8uRCTiNzeVlMYTdXC0-27" value="-descripcion: String;" style="text;strokeColor=none;fillColor=none;align=left;verticalAlign=top;spacingLeft=4;spacingRight=4;overflow=hidden;rotatable=0;points=[[0,0.5],[1,0.5]];portConstraint=eastwest;whiteSpace=wrap;html=1;" vertex="1" parent="EZ8uRCTiNzeVlMYTdXC0-24">
          <mxGeometry y="60" width="160" height="26" as="geometry" />
        </mxCell>
        <mxCell id="EZ8uRCTiNzeVlMYTdXC0-28" value="" style="endArrow=none;html=1;edgeStyle=orthogonalEdgeStyle;rounded=0;" edge="1" parent="1" source="EZ8uRCTiNzeVlMYTdXC0-16" target="EZ8uRCTiNzeVlMYTdXC0-24">
          <mxGeometry relative="1" as="geometry">
            <mxPoint x="330" y="280" as="sourcePoint" />
            <mxPoint x="490" y="280" as="targetPoint" />
          </mxGeometry>
        </mxCell>
        <mxCell id="EZ8uRCTiNzeVlMYTdXC0-29" value="LibroList" style="edgeLabel;resizable=0;html=1;align=left;verticalAlign=bottom;" connectable="0" vertex="1" parent="EZ8uRCTiNzeVlMYTdXC0-28">
          <mxGeometry x="-1" relative="1" as="geometry">
            <mxPoint x="-50" y="-3" as="offset" />
          </mxGeometry>
        </mxCell>
        <mxCell id="EZ8uRCTiNzeVlMYTdXC0-30" value="categoriaList" style="edgeLabel;resizable=0;html=1;align=right;verticalAlign=bottom;" connectable="0" vertex="1" parent="EZ8uRCTiNzeVlMYTdXC0-28">
          <mxGeometry x="1" relative="1" as="geometry">
            <mxPoint x="70" y="-3" as="offset" />
          </mxGeometry>
        </mxCell>
        <mxCell id="EZ8uRCTiNzeVlMYTdXC0-31" value="" style="endArrow=none;html=1;edgeStyle=orthogonalEdgeStyle;rounded=0;" edge="1" parent="1" source="EZ8uRCTiNzeVlMYTdXC0-9" target="EZ8uRCTiNzeVlMYTdXC0-20">
          <mxGeometry relative="1" as="geometry">
            <mxPoint x="700" y="330" as="sourcePoint" />
            <mxPoint x="700" y="414" as="targetPoint" />
          </mxGeometry>
        </mxCell>
        <mxCell id="EZ8uRCTiNzeVlMYTdXC0-32" value="parent" style="edgeLabel;resizable=0;html=1;align=left;verticalAlign=bottom;" connectable="0" vertex="1" parent="EZ8uRCTiNzeVlMYTdXC0-31">
          <mxGeometry x="-1" relative="1" as="geometry">
            <mxPoint y="24" as="offset" />
          </mxGeometry>
        </mxCell>
        <mxCell id="EZ8uRCTiNzeVlMYTdXC0-33" value="child" style="edgeLabel;resizable=0;html=1;align=right;verticalAlign=bottom;" connectable="0" vertex="1" parent="EZ8uRCTiNzeVlMYTdXC0-31">
          <mxGeometry x="1" relative="1" as="geometry" />
        </mxCell>
        <mxCell id="EZ8uRCTiNzeVlMYTdXC0-36" value="" style="endArrow=none;html=1;edgeStyle=orthogonalEdgeStyle;rounded=0;" edge="1" parent="1" source="EZ8uRCTiNzeVlMYTdXC0-16" target="EZ8uRCTiNzeVlMYTdXC0-20">
          <mxGeometry relative="1" as="geometry">
            <mxPoint x="450" y="410" as="sourcePoint" />
            <mxPoint x="610" y="410" as="targetPoint" />
            <Array as="points">
              <mxPoint x="500" y="433" />
              <mxPoint x="500" y="433" />
            </Array>
          </mxGeometry>
        </mxCell>
        <mxCell id="EZ8uRCTiNzeVlMYTdXC0-37" value="prestamoList" style="edgeLabel;resizable=0;html=1;align=left;verticalAlign=bottom;" connectable="0" vertex="1" parent="EZ8uRCTiNzeVlMYTdXC0-36">
          <mxGeometry x="-1" relative="1" as="geometry" />
        </mxCell>
        <mxCell id="EZ8uRCTiNzeVlMYTdXC0-38" value="librpList" style="edgeLabel;resizable=0;html=1;align=right;verticalAlign=bottom;" connectable="0" vertex="1" parent="EZ8uRCTiNzeVlMYTdXC0-36">
          <mxGeometry x="1" relative="1" as="geometry" />
        </mxCell>
      </root>
    </mxGraphModel>
  </diagram>
</mxfile>
